<?xml version="1.0" standalone="no"?>
<!DOCTYPE svg PUBLIC "-//W3C//DTD SVG 20010904//EN"
 "http://www.w3.org/TR/2001/REC-SVG-20010904/DTD/svg10.dtd">
<svg version="1.0" xmlns="http://www.w3.org/2000/svg"
 width="1083.000000pt" height="1083.000000pt" viewBox="0 0 1083.000000 1083.000000"
 preserveAspectRatio="xMidYMid meet">
<metadata>
Created by potrace 1.11, written by Peter Selinger 2001-2013
</metadata>
<g transform="translate(0.000000,1083.000000) scale(0.100000,-0.100000)"
fill="#000000" stroke="none">
<path d="M2222 10600 c-62 -22 -105 -56 -150 -118 -32 -46 -72 -154 -72 -197
0 -31 -37 -167 -98 -360 -54 -170 -113 -379 -148 -515 -17 -67 -64 -263 -68
-282 -3 -13 -17 -77 -31 -143 -14 -66 -30 -142 -35 -170 -5 -27 -11 -61 -14
-75 -9 -47 -45 -255 -51 -295 -3 -22 -8 -51 -10 -65 -3 -14 -7 -45 -10 -70 -3
-25 -8 -63 -11 -85 -10 -69 -12 -88 -19 -155 -4 -36 -9 -78 -10 -95 -2 -16 -7
-64 -10 -105 -3 -41 -8 -86 -10 -100 -2 -14 -7 -81 -11 -150 -3 -69 -8 -145
-10 -170 -4 -62 -4 -649 1 -735 7 -130 20 -299 30 -375 3 -19 7 -60 10 -90 10
-92 38 -274 55 -350 5 -25 12 -61 15 -80 16 -93 96 -413 137 -540 73 -231 149
-411 220 -520 45 -71 115 -142 160 -163 142 -67 303 79 294 269 -3 65 -11 88
-30 81 -17 -7 -70 17 -94 43 -49 53 -104 188 -161 400 -25 93 -82 318 -87 345
-2 11 -6 29 -8 40 -17 71 -36 167 -42 200 -3 20 -8 47 -10 59 -13 59 -45 256
-68 416 -3 19 -8 53 -11 75 -3 22 -8 63 -11 90 -2 28 -6 66 -8 85 -2 19 -7 64
-10 100 -4 36 -9 81 -11 100 -26 236 -27 718 -1 965 3 22 7 69 10 105 3 36 8
75 10 87 3 12 7 48 11 80 3 32 8 65 10 73 2 8 6 35 9 60 4 25 8 57 11 73 3 15
7 39 10 55 3 15 12 68 21 117 8 50 22 117 29 150 8 33 16 71 19 85 27 143 187
754 202 769 4 4 -1 -77 -11 -184 -19 -195 -30 -513 -29 -835 0 -282 4 -402 20
-580 16 -182 49 -422 89 -645 95 -522 333 -1187 528 -1480 124 -187 313 -360
463 -427 92 -40 172 -42 229 -6 117 74 210 237 270 477 41 163 67 312 90 521
3 30 8 71 10 90 3 19 7 67 10 106 3 40 7 91 9 115 3 24 8 78 11 119 4 41 8 86
10 100 2 14 7 49 10 79 4 30 8 61 10 70 1 9 6 36 10 61 3 25 9 59 11 75 45
286 133 659 228 968 66 211 106 300 76 172 -5 -22 -11 -60 -15 -85 -3 -25 -8
-56 -10 -70 -11 -65 -24 -170 -31 -265 -3 -38 -7 -75 -9 -82 -9 -28 -19 -334
-19 -568 1 -493 31 -758 116 -1025 135 -425 327 -679 543 -719 87 -16 207 15
238 62 26 41 29 68 13 111 -13 34 -21 42 -39 41 -86 -8 -206 139 -285 349 -45
121 -125 439 -157 624 -21 126 -22 137 -31 207 -3 33 -8 69 -10 80 -18 94 -25
605 -11 775 12 141 26 267 42 370 27 170 38 231 45 265 5 22 11 51 14 65 12
65 52 233 98 415 28 110 53 213 55 230 6 37 40 125 56 146 6 8 44 36 82 62
109 71 133 148 77 238 -95 149 -338 202 -477 105 -62 -44 -96 -91 -217 -306
-180 -319 -236 -436 -284 -587 -27 -81 -49 -152 -50 -158 -1 -5 -18 -62 -37
-125 -36 -117 -106 -353 -112 -380 -2 -8 -22 -85 -44 -170 -70 -271 -146 -623
-176 -820 -4 -25 -9 -54 -11 -65 -2 -10 -6 -35 -9 -55 -3 -20 -8 -47 -10 -60
-3 -14 -12 -65 -21 -115 -8 -49 -24 -133 -35 -185 -11 -52 -23 -106 -25 -120
-28 -145 -92 -363 -131 -447 -33 -68 -76 -113 -104 -108 -12 2 -37 16 -56 31
-149 113 -420 716 -572 1269 -45 163 -85 355 -106 510 -4 22 -8 49 -10 60 -1
11 -6 45 -10 75 -4 30 -9 66 -11 80 -2 14 -6 59 -10 100 -3 41 -7 81 -10 89
-23 71 -23 834 0 971 3 14 7 53 10 86 7 81 38 282 61 394 30 150 87 378 143
565 l38 130 -17 72 c-20 79 -47 140 -75 164 -11 9 -53 29 -94 44 -99 36 -213
42 -288 15z"/>
<path d="M8915 10560 c-93 -45 -139 -95 -169 -184 -20 -57 -26 -162 -15 -239
10 -69 29 -196 34 -227 13 -88 22 -164 30 -255 3 -38 8 -92 10 -120 3 -27 7
-123 10 -211 2 -89 7 -190 10 -225 21 -269 21 -820 0 -1039 -2 -25 -7 -76 -10
-115 -4 -38 -8 -81 -10 -95 -2 -14 -6 -43 -9 -65 -3 -22 -8 -60 -11 -85 -3
-25 -8 -52 -10 -60 -2 -8 -7 -35 -10 -60 -40 -291 -175 -666 -392 -1095 -115
-226 -221 -383 -298 -443 -50 -38 -74 -40 -103 -9 -24 26 -67 119 -83 180 -37
145 -86 407 -103 552 -4 28 -8 61 -11 75 -2 14 -6 41 -9 60 -6 41 -25 190 -32
240 -2 19 -6 49 -9 65 -3 17 -7 48 -10 70 -6 44 -32 186 -40 225 -4 14 -8 36
-11 50 -3 14 -19 81 -35 150 -17 69 -32 132 -34 140 -6 29 -135 476 -155 540
-121 375 -301 909 -358 1060 -91 241 -89 238 -146 268 -69 36 -115 49 -157 46
-48 -4 -194 -67 -251 -109 -122 -90 -157 -214 -90 -323 48 -79 72 -160 117
-392 15 -75 35 -206 45 -290 6 -52 13 -108 15 -125 9 -60 19 -334 19 -495 -1
-156 -12 -438 -18 -450 -2 -3 -6 -43 -10 -90 -4 -47 -8 -96 -10 -110 -3 -14
-7 -47 -11 -75 -8 -63 -24 -182 -30 -215 -2 -14 -7 -41 -10 -60 -11 -69 -77
-396 -90 -450 -8 -30 -16 -66 -19 -80 -2 -14 -18 -92 -35 -175 -48 -239 -62
-340 -63 -452 -2 -185 60 -251 251 -266 93 -8 164 27 191 94 13 29 11 33 -18
60 -18 17 -34 44 -38 64 -7 39 0 120 15 175 6 19 12 46 15 60 3 14 18 93 35
175 49 245 86 470 106 650 50 451 56 564 55 1060 0 209 -2 418 -4 465 -11 237
-22 424 -31 514 -3 21 -2 37 0 34 15 -15 162 -428 225 -633 110 -358 221 -855
255 -1145 3 -25 10 -81 16 -125 25 -198 29 -235 33 -285 2 -25 9 -90 15 -145
6 -55 13 -127 16 -160 6 -63 11 -120 20 -220 26 -272 129 -589 234 -723 57
-72 96 -93 173 -93 237 -1 474 235 718 715 135 265 255 580 335 876 33 121 82
343 91 405 2 17 6 41 9 55 11 59 42 267 50 345 4 33 8 71 10 85 2 14 7 61 10
105 4 44 9 94 11 110 7 61 21 311 24 433 3 90 15 102 18 19 2 -34 5 -75 7 -92
22 -184 23 -1009 0 -1205 -2 -19 -6 -73 -10 -120 -5 -79 -8 -113 -20 -215 -2
-22 -7 -69 -10 -105 -3 -36 -12 -112 -21 -170 -8 -58 -17 -121 -20 -140 -4
-32 -58 -350 -69 -410 -3 -14 -14 -81 -26 -150 -11 -69 -22 -136 -25 -150 -2
-14 -13 -74 -24 -135 -10 -60 -22 -126 -25 -145 -3 -19 -8 -42 -10 -50 -2 -8
-7 -42 -11 -75 -3 -33 -8 -69 -10 -80 -24 -124 -24 -411 0 -520 47 -211 169
-332 269 -266 35 23 54 49 72 102 14 39 14 45 -6 86 -33 69 -31 191 6 418 9
50 20 110 25 135 6 25 12 54 14 65 2 11 18 76 35 145 34 140 81 372 106 530
10 58 19 114 21 125 2 10 6 37 9 60 3 22 8 58 11 79 4 21 8 53 9 70 2 17 6 51
10 76 10 74 14 112 20 180 3 36 8 79 10 96 2 17 7 71 10 120 3 49 8 105 10
124 24 202 24 1064 0 1340 -2 25 -6 83 -9 130 -4 47 -8 108 -11 135 -2 28 -7
79 -10 115 -3 36 -7 81 -10 100 -2 19 -7 56 -10 83 -8 73 -16 139 -20 167 -2
14 -7 52 -11 85 -3 33 -7 67 -9 75 -1 8 -6 35 -9 60 -7 47 -15 100 -41 265 -9
55 -44 188 -77 295 -64 207 -78 305 -57 398 47 210 -54 375 -236 388 -40 3
-63 -2 -110 -26z"/>
<path d="M2859 4586 c-2 -2 -24 -7 -48 -11 -83 -12 -217 -56 -306 -100 -354
-174 -589 -404 -691 -675 -25 -69 -28 -87 -27 -210 0 -118 3 -146 27 -225 67
-220 208 -452 447 -731 51 -60 226 -243 389 -408 162 -164 300 -304 306 -310
9 -10 76 -86 146 -164 89 -100 204 -269 258 -377 76 -151 101 -246 106 -390 4
-136 -5 -182 -67 -367 -90 -267 -76 -346 66 -378 76 -17 322 -14 505 5 90 10
136 16 170 21 19 2 51 7 70 10 170 24 430 89 607 151 l102 37 16 45 c20 59 19
164 -1 208 -46 96 -140 91 -494 -27 -183 -61 -256 -83 -312 -96 -10 -2 -27 -6
-39 -9 -61 -13 -168 -23 -199 -19 -82 13 -95 41 -104 234 -14 290 -51 439
-163 658 -111 219 -249 405 -584 788 -255 292 -361 424 -463 577 -284 425
-347 762 -201 1061 68 138 227 317 463 521 62 53 118 106 126 117 13 18 11 57
-3 59 -43 6 -98 8 -102 5z"/>
<path d="M7383 4397 c94 -159 158 -314 201 -485 34 -134 41 -194 41 -362 0
-190 -9 -267 -55 -450 -55 -216 -116 -385 -265 -725 -264 -605 -345 -820 -407
-1075 -52 -220 -57 -257 -44 -362 28 -228 152 -477 319 -638 111 -108 340
-181 404 -129 27 23 3 62 -114 182 -63 65 -112 121 -110 124 3 2 50 -9 104
-25 194 -60 291 -86 368 -99 17 -3 49 -8 73 -13 63 -11 182 -5 224 13 79 33
91 104 49 292 -38 173 -46 232 -43 335 4 139 60 311 153 473 81 138 264 368
454 567 176 184 246 264 308 353 218 307 166 563 -138 675 -113 41 -318 47
-462 13 -160 -39 -286 -112 -538 -313 -60 -49 -113 -88 -117 -88 -9 0 -5 7
116 255 138 281 187 412 225 596 47 226 8 442 -113 629 -57 88 -147 162 -284
233 -143 74 -190 88 -299 93 l-92 4 42 -73z m1305 -1661 c86 -44 72 -165 -41
-350 -29 -47 -115 -167 -192 -267 -254 -329 -319 -417 -383 -518 -114 -184
-187 -349 -218 -496 -15 -71 -19 -109 -29 -290 -11 -197 -23 -223 -105 -226
-78 -4 -132 10 -230 58 -153 75 -268 208 -324 376 -93 277 22 641 320 1017 93
117 329 351 442 438 115 89 238 163 344 209 151 65 341 88 416 49z"/>
<path d="M5725 2992 c-292 -35 -479 -247 -540 -607 -19 -119 -23 -214 -13
-316 11 -100 32 -152 87 -212 84 -91 169 -128 205 -88 16 17 17 29 11 83 -23
190 -5 334 58 472 108 233 273 357 476 357 48 0 99 -5 114 -10 15 -6 27 -9 27
-6 0 8 96 -38 127 -62 87 -65 135 -190 135 -351 0 -59 -3 -132 -6 -162 -4 -30
-9 -73 -12 -95 -8 -67 -22 -167 -29 -205 -3 -14 -7 -41 -10 -60 -9 -58 -28
-100 -45 -101 -8 0 -132 -2 -275 -3 -238 -3 -265 -5 -325 -25 -116 -40 -223
-113 -327 -225 -124 -132 -188 -249 -230 -421 -10 -42 -12 -232 -2 -275 51
-233 288 -395 579 -395 58 0 128 3 155 7 163 24 326 98 434 198 38 35 44 32
62 -35 17 -65 51 -167 70 -211 50 -111 186 -177 317 -153 82 16 90 48 38 160
-101 218 -171 488 -201 774 -12 106 -6 338 11 455 2 19 9 65 14 103 19 127 85
401 150 617 17 57 23 181 11 245 -49 265 -346 474 -766 541 -47 7 -256 12
-300 6z m463 -1627 c84 -34 118 -107 109 -235 -12 -191 -79 -329 -211 -436
-54 -44 -132 -86 -181 -99 -62 -15 -71 -16 -136 -16 -89 1 -170 31 -224 85
-58 59 -75 115 -71 230 10 233 119 380 343 457 30 10 79 21 111 25 31 3 58 7
60 9 10 9 165 -6 200 -20z"/>
</g>
</svg>
